<mxfile host="app.diagrams.net" modified="2023-04-21T08:57:39.734Z" agent="Mozilla/5.0 (Windows NT 10.0; Win64; x64) AppleWebKit/537.36 (KHTML, like Gecko) Chrome/112.0.0.0 Safari/537.36" etag="qx8bndbODkTgCUQHej4I" version="21.1.5" type="device">
  <diagram name="第 1 页" id="Dh3k1rLqVgHagQvMKlZ7">
    <mxGraphModel dx="1147" dy="605" grid="1" gridSize="10" guides="1" tooltips="1" connect="1" arrows="1" fold="1" page="1" pageScale="1" pageWidth="827" pageHeight="1169" background="#ffffff" math="0" shadow="0">
      <root>
        <mxCell id="0" />
        <mxCell id="1" parent="0" />
        <mxCell id="fAVEAw1DLc_Wigy3m2yM-1" value="User" style="shape=umlActor;verticalLabelPosition=bottom;verticalAlign=top;html=1;" vertex="1" parent="1">
          <mxGeometry x="150" y="350" width="50" height="90" as="geometry" />
        </mxCell>
        <mxCell id="fAVEAw1DLc_Wigy3m2yM-2" value="登录模块" style="ellipse;whiteSpace=wrap;html=1;" vertex="1" parent="1">
          <mxGeometry x="290" y="230" width="140" height="70" as="geometry" />
        </mxCell>
        <mxCell id="fAVEAw1DLc_Wigy3m2yM-3" value="注册模块" style="ellipse;whiteSpace=wrap;html=1;" vertex="1" parent="1">
          <mxGeometry x="290" y="460" width="140" height="70" as="geometry" />
        </mxCell>
        <mxCell id="fAVEAw1DLc_Wigy3m2yM-4" value="验证码登录" style="ellipse;whiteSpace=wrap;html=1;" vertex="1" parent="1">
          <mxGeometry x="480" y="120" width="140" height="70" as="geometry" />
        </mxCell>
        <mxCell id="fAVEAw1DLc_Wigy3m2yM-5" value="找回密码" style="ellipse;whiteSpace=wrap;html=1;" vertex="1" parent="1">
          <mxGeometry x="520" y="230" width="140" height="70" as="geometry" />
        </mxCell>
        <mxCell id="fAVEAw1DLc_Wigy3m2yM-6" value="账号密码登录" style="ellipse;whiteSpace=wrap;html=1;" vertex="1" parent="1">
          <mxGeometry x="480" y="340" width="140" height="70" as="geometry" />
        </mxCell>
        <mxCell id="fAVEAw1DLc_Wigy3m2yM-7" value="" style="endArrow=block;endSize=16;endFill=0;html=1;rounded=0;entryX=1;entryY=0.5;entryDx=0;entryDy=0;exitX=0;exitY=0.5;exitDx=0;exitDy=0;" edge="1" parent="1" source="fAVEAw1DLc_Wigy3m2yM-5" target="fAVEAw1DLc_Wigy3m2yM-2">
          <mxGeometry width="160" relative="1" as="geometry">
            <mxPoint x="250" y="400" as="sourcePoint" />
            <mxPoint x="410" y="400" as="targetPoint" />
          </mxGeometry>
        </mxCell>
        <mxCell id="fAVEAw1DLc_Wigy3m2yM-8" value="" style="endArrow=block;endSize=16;endFill=0;html=1;rounded=0;exitX=0;exitY=0.5;exitDx=0;exitDy=0;entryX=1;entryY=0.5;entryDx=0;entryDy=0;" edge="1" parent="1" source="fAVEAw1DLc_Wigy3m2yM-4" target="fAVEAw1DLc_Wigy3m2yM-2">
          <mxGeometry width="160" relative="1" as="geometry">
            <mxPoint x="260" y="410" as="sourcePoint" />
            <mxPoint x="420" y="410" as="targetPoint" />
          </mxGeometry>
        </mxCell>
        <mxCell id="fAVEAw1DLc_Wigy3m2yM-9" value="Extend" style="endArrow=open;endSize=12;dashed=1;html=1;rounded=0;entryX=1;entryY=0.5;entryDx=0;entryDy=0;exitX=0;exitY=0.5;exitDx=0;exitDy=0;" edge="1" parent="1" source="fAVEAw1DLc_Wigy3m2yM-6" target="fAVEAw1DLc_Wigy3m2yM-2">
          <mxGeometry width="160" relative="1" as="geometry">
            <mxPoint x="260" y="370" as="sourcePoint" />
            <mxPoint x="420" y="370" as="targetPoint" />
            <mxPoint as="offset" />
          </mxGeometry>
        </mxCell>
        <mxCell id="fAVEAw1DLc_Wigy3m2yM-12" value="" style="endArrow=none;html=1;rounded=0;exitX=0.5;exitY=0.5;exitDx=0;exitDy=0;exitPerimeter=0;entryX=0;entryY=0.5;entryDx=0;entryDy=0;" edge="1" parent="1" source="fAVEAw1DLc_Wigy3m2yM-1" target="fAVEAw1DLc_Wigy3m2yM-3">
          <mxGeometry width="50" height="50" relative="1" as="geometry">
            <mxPoint x="260" y="410" as="sourcePoint" />
            <mxPoint x="310" y="360" as="targetPoint" />
          </mxGeometry>
        </mxCell>
        <mxCell id="fAVEAw1DLc_Wigy3m2yM-13" value="" style="endArrow=none;html=1;rounded=0;exitX=0;exitY=0.5;exitDx=0;exitDy=0;entryX=0.5;entryY=0.5;entryDx=0;entryDy=0;entryPerimeter=0;" edge="1" parent="1" source="fAVEAw1DLc_Wigy3m2yM-2" target="fAVEAw1DLc_Wigy3m2yM-1">
          <mxGeometry width="50" height="50" relative="1" as="geometry">
            <mxPoint x="185" y="405" as="sourcePoint" />
            <mxPoint x="300" y="505" as="targetPoint" />
          </mxGeometry>
        </mxCell>
      </root>
    </mxGraphModel>
  </diagram>
</mxfile>
